<?xml version="1.0" standalone="no"?>
<!DOCTYPE svg PUBLIC "-//W3C//DTD SVG 20010904//EN"
 "http://www.w3.org/TR/2001/REC-SVG-20010904/DTD/svg10.dtd">
<svg version="1.0" xmlns="http://www.w3.org/2000/svg"
 width="457.000000pt" height="457.000000pt" viewBox="0 0 457.000000 457.000000"
 preserveAspectRatio="xMidYMid meet">
<metadata>
Created by potrace 1.14, written by Peter Selinger 2001-2017
</metadata>
<g transform="translate(0.000000,457.000000) scale(0.100000,-0.100000)"
fill="#000000" stroke="none">
<path d="M2009 4565 c-3 -2 -25 -6 -49 -9 -58 -7 -129 -21 -210 -41 -36 -9
-72 -17 -80 -19 -42 -10 -166 -50 -175 -56 -5 -3 -32 -15 -60 -25 -47 -17
-246 -112 -290 -138 -11 -7 -42 -25 -70 -42 -27 -16 -52 -32 -55 -35 -3 -3
-29 -21 -57 -40 -29 -19 -53 -38 -53 -42 0 -5 -5 -8 -11 -8 -12 0 -91 -64
-151 -122 -21 -21 -42 -38 -46 -38 -4 -1 -20 -19 -37 -40 -16 -21 -36 -39 -42
-40 -7 0 -13 -3 -13 -7 0 -5 -16 -26 -36 -48 -20 -22 -67 -80 -105 -130 -38
-49 -73 -95 -78 -101 -4 -5 -14 -21 -21 -35 -7 -13 -16 -26 -20 -29 -4 -3 -20
-30 -36 -60 -16 -30 -31 -57 -35 -60 -7 -6 -92 -181 -114 -235 -21 -51 -76
-204 -80 -224 -2 -9 -11 -43 -20 -76 -9 -33 -28 -118 -41 -190 -22 -121 -23
-150 -20 -420 2 -159 6 -303 10 -320 3 -16 11 -55 17 -85 40 -204 120 -432
221 -627 53 -104 180 -301 221 -346 14 -15 24 -27 21 -27 -5 0 40 -51 107
-122 20 -21 35 -38 33 -38 -1 0 23 -24 54 -52 31 -29 66 -62 78 -73 72 -67
251 -200 287 -211 9 -4 17 -9 17 -13 0 -3 21 -18 47 -31 27 -14 50 -27 53 -30
3 -3 50 -27 105 -54 55 -27 112 -55 127 -63 15 -7 29 -13 30 -13 2 1 10 -1 18
-4 53 -19 229 -76 250 -80 14 -3 65 -14 113 -25 154 -34 176 -36 462 -36 254
0 340 4 415 21 14 3 34 7 45 9 11 2 29 6 40 8 11 3 41 10 68 16 171 39 467
159 592 240 56 36 78 49 95 57 17 9 199 142 218 161 7 7 18 13 23 13 5 0 9 7
9 15 0 8 6 15 13 15 12 0 162 149 245 243 57 65 170 225 224 318 40 67 131
246 133 259 0 3 17 48 38 100 35 92 83 246 92 299 2 14 7 41 10 60 3 19 7 37
9 40 13 21 21 174 21 411 0 243 -3 306 -21 398 -2 12 -6 34 -9 50 -35 183
-116 414 -209 594 -51 100 -162 278 -193 312 -13 14 -23 28 -23 31 0 14 -98
124 -210 236 -174 174 -349 303 -566 414 -92 48 -310 138 -359 150 -11 3 -63
16 -115 31 -52 14 -104 27 -115 29 -11 2 -36 6 -55 9 -19 3 -62 10 -95 15 -58
9 -578 15 -586 6z"/>
</g>
</svg>
