<svg width="100" height="50" xmlns="http://www.w3.org/2000/svg">
  <g fill="#00A0FF">
    <path
      d="M28.212 11.67a16.508 16.508 0 0 0-1.902-1.236 1.08 1.08 0 0 0-1.39.292l-4.093 5.438-.292.388a2.226 2.226 0 0 1-1.888.876 7.294 7.294 0 0 0-6.188 2.906 7.28 7.28 0 0 0-1.46 4.776c.016.298.189.57.46.694a1.92 1.92 0 0 1 1.106 1.447 1.926 1.926 0 1 1-3.417-.88c.19-.244.286-.547.259-.855a8.895 8.895 0 0 1 1.76-6.155 8.913 8.913 0 0 1 7.087-3.558 1.663 1.663 0 0 0 1.318-.666l3.77-5.007a.7.7 0 0 0-.367-1.093c-6.311-1.852-13.378.231-17.61 5.744-5.485 7.142-4.152 17.441 2.974 22.946.667.516 1.36.97 2.075 1.367.47.261 1.06.134 1.384-.296l4.093-5.437.292-.388a2.226 2.226 0 0 1 1.887-.876 7.294 7.294 0 0 0 6.188-2.906 7.28 7.28 0 0 0 1.46-4.776.804.804 0 0 0-.46-.694 1.92 1.92 0 0 1-1.105-1.447 1.926 1.926 0 1 1 3.417.88c-.19.243-.286.547-.259.855a8.895 8.895 0 0 1-1.76 6.155 8.913 8.913 0 0 1-7.088 3.558 1.663 1.663 0 0 0-1.317.665l-3.77 5.008a.7.7 0 0 0 .359 1.09c6.361 1.87 13.493-.259 17.716-5.87 5.441-7.23 3.991-17.503-3.239-22.945zM55.257 16.146v-.389a.51.51 0 0 0-.51-.51H41.985a.51.51 0 0 0-.51.51v.779c0 .281.228.51.51.51h10.827c.312 0 .552.274.505.582-.304 2.014-1.256 5.779-4.231 9.394-.21.256-.6.251-.805-.01-2.49-3.183-3.256-6.447-3.465-7.65a.508.508 0 0 0-.555-.416l-.408.043-.36.038a.508.508 0 0 0-.448.596c.255 1.38 1.185 5.172 4.107 8.783a.51.51 0 0 1-.043.697c-3.558 3.263-6.758 3.978-7.902 4.134a.51.51 0 0 0-.444.508l.003.786c.002.303.265.54.565.504 1.361-.16 4.992-.929 9.005-4.619a.513.513 0 0 1 .697 0c1.94 1.796 4.417 3.528 7.76 4.59a.51.51 0 0 0 .64-.343l.22-.746a.51.51 0 0 0-.339-.63c-3.04-.97-5.282-2.532-7.042-4.133a.508.508 0 0 1-.035-.706c4.96-5.806 5.02-12.02 5.02-12.302zM64.116 14.433h-.779a.51.51 0 0 0-.51.51v2.73a.51.51 0 0 1-.509.509h-1.831a.51.51 0 0 0-.51.51v.778c0 .281.229.51.51.51h1.831a.51.51 0 0 1 .51.509v3.954a.51.51 0 0 1-.51.51h-1.831a.51.51 0 0 0-.51.509v.778c0 .282.229.51.51.51h1.831a.51.51 0 0 1 .51.51v3.738c0 .812-.325 2.136-2.395 2.31a.513.513 0 0 0-.476.509v.775a.51.51 0 0 0 .548.51c2.01-.172 4.12-1.313 4.12-4.104V27.26a.51.51 0 0 1 .51-.509h1.627a.51.51 0 0 0 .51-.51v-.778a.51.51 0 0 0-.51-.51h-1.627a.51.51 0 0 1-.51-.509v-3.954a.51.51 0 0 1 .51-.51h1.627a.51.51 0 0 0 .51-.51v-.778a.51.51 0 0 0-.51-.51h-1.627a.51.51 0 0 1-.51-.509v-2.73a.51.51 0 0 0-.51-.509zM68.17 34.47c0 .281.228.51.51.51h5.742c2.541 0 4.608-1.971 4.608-4.393V18.518a.51.51 0 0 0-.509-.51H68.68a.51.51 0 0 0-.51.51V34.47zm6.252-1.288h-3.945a.51.51 0 0 1-.51-.51V27.26a.51.51 0 0 1 .51-.51h6.246a.51.51 0 0 1 .51.51v3.327c0 1.43-1.261 2.595-2.81 2.595zm2.811-12.866v4.127a.51.51 0 0 1-.51.51h-6.245a.51.51 0 0 1-.51-.51v-4.127a.51.51 0 0 1 .51-.51h6.245a.51.51 0 0 1 .51.51zM75.994 14.42H70.92a.51.51 0 0 0-.51.51v.778c0 .281.228.51.51.51h5.073a.51.51 0 0 0 .51-.51v-.779a.51.51 0 0 0-.51-.51zM95.384 15.21H84.818a.51.51 0 0 0-.51.51v.778c0 .282.229.51.51.51h10.566a.51.51 0 0 0 .51-.51v-.778a.51.51 0 0 0-.51-.51zM90.869 24.222h7.36a.51.51 0 0 0 .51-.51v-.778a.51.51 0 0 0-.51-.51H81.971a.51.51 0 0 0-.51.51v.779c0 .281.229.51.51.51h5.032a.51.51 0 0 1 .424.79l-3.348 6.042c-.09.135-.157.268-.204.405-.28.819-.149 1.697.36 2.41a2.896 2.896 0 0 0 2.36 1.193h9.177c.412 0 .789-.206 1.007-.55.215-.338.24-.755.07-1.116l-2.13-4.13a.51.51 0 0 0-.687-.22l-.692.357a.51.51 0 0 0-.219.687l1.255 2.431a.51.51 0 0 1-.453.743h-7.328c-.37 0-.698-.16-.898-.44a.846.846 0 0 1-.146-.695.482.482 0 0 1 .07-.148l4.069-7.127a1.416 1.416 0 0 1 1.179-.633z"
    />
  </g>
</svg>